<?xml version="1.0" encoding="UTF-8" standalone="no"?>
<!-- Created with Inkscape (http://www.inkscape.org/) -->
<svg
   xmlns:svg="http://www.w3.org/2000/svg"
   xmlns="http://www.w3.org/2000/svg"
   version="1.0"
   width="602.36218"
   height="533.05511"
   id="svg8344">
  <defs
     id="defs8346" />
  <g
     id="layer1">
    <path
       d="M 238.10042,117.61494 C 219.5529,117.00244 124.15283,124.4587 82.339041,136.45995 C 80.254041,144.32371 79.089041,152.40997 79.089041,160.64872 C 79.089041,223.90627 143.03659,277.52382 231.63166,296.33008 C 238.55917,270.21131 259.31418,189.44875 262.43919,150.04122 C 264.92294,128.8337 264.92294,118.84744 238.10042,117.61494 M 520.40819,136.0687 C 522.58319,144.06246 523.74819,152.26372 523.74819,160.64747 C 523.74819,223.62127 460.39809,277.03132 372.43179,296.08383 C 365.41299,269.68881 344.78049,189.34 341.68299,150.03997 C 339.17049,128.8337 339.17049,118.84744 366.02549,117.61494 C 384.38799,117.01744 477.91809,124.2962 520.40819,136.0687 M 312.99169,110.53243 L 312.99169,303.38009 C 309.16169,303.50259 305.29799,303.56384 301.43419,303.56384 C 297.97046,303.56384 294.53671,303.50134 291.13421,303.41009 L 291.13421,110.53243 C 289.87796,93.686177 286.96546,91.394917 271.17794,90.766167 C 203.79664,91.708667 118.05282,108.49368 90.646551,115.22244 C 120.16782,58.563647 203.38164,17.722357 301.43419,17.722357 C 399.31679,17.722357 482.36439,58.409897 512.05439,114.87744 C 483.22189,107.94243 399.22429,91.694917 332.94929,90.766167 C 317.12919,91.394917 314.21669,93.686177 312.99169,110.53243 M 255.03668,372.87639 L 307.93419,515.33276 L 253.39668,515.33276 L 224.64166,432.59394 L 195.88663,515.33276 L 141.35034,515.33276 L 194.21538,372.87639 L 255.03668,372.87639 z M 58.795271,416.04018 L 17.716491,416.04018 L 17.716491,373.13764 L 153.4291,373.13764 L 153.4291,415.30268 L 115.90657,415.30268 L 115.90657,514.81151 L 58.795271,514.91776 L 58.795271,416.04018 z M 531.75189,372.87639 L 584.64569,515.33276 L 530.09319,515.33276 L 501.33809,432.59394 L 472.58439,515.33276 L 418.04809,515.33276 L 470.92809,372.87639 L 531.75189,372.87639 z M 336.15179,416.04018 L 295.05796,416.04018 L 295.05796,373.13764 L 430.73929,373.13764 L 430.73929,415.30268 L 393.21559,415.30268 L 393.21559,514.81151 L 336.15179,514.91776 L 336.15179,416.04018 z "
       style="fill:#5982c4;fill-opacity:1"
       id="path5" />
  </g>
</svg>
